<?xml version="1.0" encoding="utf-8"?>
<!-- Generator: Adobe Illustrator 22.0.1, SVG Export Plug-In . SVG Version: 6.00 Build 0)  -->
<svg version="1.1" id="Слой_2_1_" xmlns="http://www.w3.org/2000/svg" xmlns:xlink="http://www.w3.org/1999/xlink" x="0px"
	 y="0px" viewBox="0 0 229.7 239" style="enable-background:new 0 0 229.7 239;" xml:space="preserve">
<style type="text/css">
	.st0{fill:none;}
	.st1{fill:#F40304;}
</style>
<g>
	<path class="st0" d="M187.9,125.8l28.8,54.3l-46.1-11.5l-35.5,29.7l-19.6-8.3l-20.4,8.2l-36.4-29.6l-44.5,11.5L43,125.8L29.8,30.3
		l56,57.6h59.3l55.2-57.6L187.9,125.8z M156.1,151.6l18.1-22.2l-45.4,26L156.1,151.6z"/>
</g>
<g>
	<polygon class="st0" points="135.1,198.3 170.6,168.6 216.7,180.1 115.5,227.8 14.2,180.1 58.7,168.6 95.1,198.2 115.5,214.7 	"/>
</g>
<path class="st1" d="M197.5,125.2L214.3,0.1l-73.8,77.4H89.6L14.9,0.2l16.7,124.1l-32.2,61.2l115.2,53.8l115.2-54.7L197.5,125.2z
	 M43.5,125.9l-13-94.2l54.9,56.5l0.1,0.2h59.7l54.3-56.7l-12.2,94.1l28.6,54l-100.5,47.4L14.9,179.9L43.5,125.9z"/>
<path class="st1" d="M170.5,168.1L135,197.7l-19.3-8.2c-0.1-0.1-0.3-0.1-0.4,0l-20.1,8.1L59,168.2c-0.1-0.1-0.3-0.1-0.4-0.1
	l-44.5,11.5c-0.3,0.1-0.4,0.3-0.4,0.6c0.1,0.3,0.3,0.4,0.6,0.4l44.3-11.4l36.2,29.4c0,0,0,0,0,0c0,0,0,0,0,0l20.4,16.5
	c0.1,0.1,0.2,0.1,0.3,0.1c0.1,0,0.2,0,0.3-0.1l19.6-16.4l35.3-29.5l45.9,11.4l0.2-1L170.5,168.1z"/>
<polygon class="st1" points="126.3,156.3 156.4,152.1 176.3,127.6 "/>
<path class="st1" d="M102.2,156.3l-45.5-25.5c-0.1-0.1-0.2,0-0.3,0.1c-0.1,0.1-0.1,0.2,0,0.3l18.1,22.2c0,0,0.1,0.1,0.2,0.1
	l27.4,3.3c0,0,0,0,0,0c0.1,0,0.2-0.1,0.2-0.2C102.4,156.5,102.3,156.3,102.2,156.3z"/>
</svg>
